<svg version="1.1" id="Слой_1" xmlns="http://www.w3.org/2000/svg" xmlns:xlink="http://www.w3.org/1999/xlink" x="0px" y="0px" viewBox="0 0 360 360" style="enable-background:new 0 0 360 360;" xml:space="preserve">
<path d="M115.7,360c-18.8,0-37.2-9.8-47.3-27.3L8.5,228.9c-8.2-14.2-9.6-31-3.8-46.3c-9.2-24.5,0.4-52.8,23.9-66.2l188.7-109
	c12.6-7.2,27.3-9.3,41.3-5.4c14.1,3.7,25.8,12.8,33.1,25.3L351.5,131c7.2,12.6,9.3,27.3,5.4,41.3c-0.4,1.7-1,3.3-1.6,5
	c9.3,24.7-0.7,52.9-23.9,66.2L142.8,352.7C134.3,357.6,124.9,360,115.7,360z M10.1,193.5c-1.9,10.6,0,21.7,5.5,31.3l59.9,103.8
	c6.2,10.8,16.2,18.4,28.1,21.6s24.4,1.6,35.1-4.6l188.8-109c17.1-9.9,25.9-29.5,22.5-48.3c-4.6,7-10.9,13-18.3,17.2l-188.9,109
	c-12.6,7.2-27.3,9.3-41.3,5.4c-14.1-3.7-25.8-12.8-33.1-25.3L10.1,193.5z M221.2,14.4l-188.7,109c-22.1,12.8-29.7,41.2-16.9,63.2
	l59.9,103.8c6.2,10.8,16.2,18.4,28.1,21.6s24.4,1.6,35.1-4.6l188.8-109c10.8-6.2,18.4-16.2,21.6-28.1s1.6-24.4-4.6-35.1L284.7,31.5
	c-6.2-10.8-16.2-18.4-28.1-21.6C244.4,6.5,232,8.2,221.2,14.4L221.2,14.4z M86.2,216.3c-0.7,0-1.4-0.1-2.1-0.3
	c-2.1-0.5-3.8-1.9-5-3.8c-1.1-1.9-1.4-4-0.9-6.2s1.9-3.8,3.8-5c3.9-2.2,8.9-0.9,11.2,3l0,0l0,0l0,0c1.1,1.9,1.4,4,0.9,6.2
	c-0.5,2.1-1.9,3.8-3.8,5C89,215.9,87.6,216.3,86.2,216.3z M139.9,199.1c-0.7,0-1.4-0.1-2.1-0.3c-2.1-0.5-3.8-1.9-5-3.8
	c-2.2-3.9-1-8.9,3-11.2c1.9-1.1,4-1.4,6.2-0.9c2.1,0.5,3.9,1.9,5,3.8l0,0c2.2,3.9,1,8.9-3,11.2C142.6,198.7,141.2,199.1,139.9,199.1
	z M176.4,164.2c-2.9,0-5.5-1.5-7.1-4c-1.1-1.9-1.4-4-0.9-6.2c0.5-2.1,1.9-3.8,3.8-5c1.9-1.1,4-1.4,6.2-0.9c2.1,0.5,3.8,1.9,5,3.8
	l0,0c2.2,3.9,1,8.9-3,11.2C179.1,163.9,177.8,164.2,176.4,164.2z M224.7,150.1c-2.9,0-5.6-1.5-7.1-4c-2.2-3.9-1-8.9,3-11.2
	c1.9-1.1,4-1.4,6.2-0.9c2.1,0.5,3.9,1.9,5,3.8l0,0c2.2,3.9,1,8.9-3,11.2C227.6,149.8,226.1,150.1,224.7,150.1z M266.8,112
	c-2.9,0-5.5-1.5-7.1-4c-2.2-3.9-1-8.9,3-11.2c3.9-2.2,8.9-0.9,11.2,3l0,0c1.1,1.9,1.4,4,0.9,6.2c-0.5,2.1-1.9,3.8-3.8,5
	C269.6,111.6,268.2,112,266.8,112z"></path>
</svg>
