<svg version="1.1" id="Слой_1" xmlns="http://www.w3.org/2000/svg" xmlns:xlink="http://www.w3.org/1999/xlink" x="0px" y="0px" viewBox="0 0 360 360" style="enable-background:new 0 0 360 360;" xml:space="preserve">
<path d="M270,360H90c-33.1,0-60-26.9-60-60V60C30,26.9,56.9,0,90,0h180c33.1,0,60,26.9,60,60v240C330,333.1,303.1,360,270,360z
	 M90,9C61.9,9,39,31.9,39,60v240c0,28.1,22.9,51,51,51h180c28.1,0,51-22.9,51-51V60c0-28.1-22.9-51-51-51C270,9,90,9,90,9z M180,240
	c-33.1,0-60-26.9-60-60s26.9-60,60-60s60,26.9,60,60S213.1,240,180,240z M180,129c-28.1,0-51,22.9-51,51s22.9,51,51,51
	s51-22.9,51-51S208.1,129,180,129z M70.5,234c-9.1,0-16.5-7.4-16.5-16.5v-75c0-9.1,7.4-16.5,16.5-16.5H75c6.6,0,12,5.4,12,12v13.4
	c0,5.8-4.7,10.6-10.6,10.6c-2.9,0-5.2,2.4-5.2,5.2v22.8c0,4.4,3.5,7.9,7.9,7.9c4.4,0,7.9,3.5,7.9,7.9v11.6
	C87,226.6,79.6,234,70.5,234z M63,195.4v22.1c0,4.2,3.3,7.5,7.5,7.5s7.5-3.3,7.5-7.5V207C71,206.6,65.1,201.9,63,195.4z M70.5,135
	c-4.2,0-7.5,3.3-7.5,7.5v19.9c2-5.5,7.3-9.4,13.4-9.4c0.9,0,1.6-0.8,1.6-1.6V138c0-1.6-1.4-3-3-3H70.5z M180,204
	c-13.3,0-24-10.7-24-24s10.7-24,24-24s24,10.7,24,24S193.3,204,180,204z M180,165c-8.2,0-15,6.8-15,15s6.8,15,15,15s15-6.8,15-15
	S188.2,165,180,165z"></path>
</svg>
