<svg version="1.1" id="Слой_1" xmlns="http://www.w3.org/2000/svg" xmlns:xlink="http://www.w3.org/1999/xlink" x="0px" y="0px" viewBox="0 0 1417.3 1020.5" style="enable-background:new 0 0 1417.3 1020.5;" xml:space="preserve">
<style type="text/css">
	.st0{fill:#020203;}
</style>
<path class="st0" d="M496.4,986.5c-262.7,0-476.2-213.5-476.2-476.2S233.7,34,496.4,34s476.2,213.5,476.2,476.2
	S759.1,986.5,496.4,986.5z M496.4,57.8c-249.6,0-452.5,202.9-452.5,452.5s202.9,452.5,452.5,452.5s452.5-202.9,452.5-452.5
	S746,57.8,496.4,57.8z M496.4,764.3c-140.2,0-254.1-113.9-254.1-254.1s113.9-254.1,254.1-254.1s254.1,113.9,254.1,254.1
	S636.5,764.3,496.4,764.3z M496.4,279.9c-127,0-230.3,103.3-230.3,230.3s103.3,230.3,230.3,230.3s230.3-103.3,230.3-230.3
	S623.4,279.9,496.4,279.9z M1345.1,938.5V546.7c0-26.2,8.2-51.6,23.8-72.9c18.4-25.4,28.3-55.3,28.3-86.9v-98.8h-23.8v98.8
	c0,26.2-8.2,51.6-23.8,72.9c-18.4,25.4-28.3,55.3-28.3,86.9v391.8c0,4.9-8.6,4.9-8.6,0V548.4c0-32.4-11.5-64.3-32-89.3
	c-17.2-20.9-26.6-47.1-26.6-74.2v-96.7h-23.8v96.7c0,32.4,11.5,64.3,32,89.3c17.2,20.9,26.6,47.1,26.6,74.2v390.2
	c0,15.6,12.7,28.3,28.3,28.3C1332.4,966.8,1345.1,954.1,1345.1,938.5z M1103.3,954.5c-11.1,0-19.7-9-19.7-19.7V343.4
	c0-30.7,25-55.7,55.7-55.7c30.7,0,55.7,25,55.7,55.7v227.5c0,32.4-12.7,63.1-35.7,86.1c-23,23-35.7,53.7-35.7,86.1v191.4
	C1123.4,945.9,1114.4,954.5,1103.3,954.5z M1139.4,311.9c-17.6,0-31.6,14.3-31.6,31.6v352c7-20.5,18.9-39.3,34.8-55.3
	c18.4-18.4,28.7-43,28.7-69.3V343.4C1170.9,326.2,1156.6,311.9,1139.4,311.9z M1302.1,288.1h-23.8v111.1h23.8V288.1z M1349.6,288.1
	h-23.8v111.1h23.8V288.1z"></path>
</svg>
