<svg version="1.1" id="Слой_1" xmlns="http://www.w3.org/2000/svg" xmlns:xlink="http://www.w3.org/1999/xlink" x="0px" y="0px" viewBox="0 0 1417.3 1020.5" style="enable-background:new 0 0 1417.3 1020.5;" xml:space="preserve">
<style type="text/css">
	.st0{fill:#020203;}
</style>
<path class="st0" fill="inherit" d="M718.6,873.4l-6.5-3.3c-2-1.2-4.9-2.4-8.1-4.5c-12.2-6.9-25.2-14.6-37.8-22.8c-28.5-18.7-71.6-50-114.7-93.5
	c-109-110.2-166.7-246-166.7-392C384.8,178.8,529.9,34,708.1,34c178.5,0,323.3,145.2,323.3,323.3c0,145.6-54.1,280.6-156.6,391.2
	c-40.3,43.5-80.9,75.2-107.8,93.9c-12.2,8.5-24,16.3-35.4,23.2l0,0c-2.8,1.6-5.3,3.3-7.3,4.1L718.6,873.4z M708.5,60
	c-163.9,0-297.3,133.4-297.3,297.3c0,141.1,53.7,266.4,159,373.3c41.5,41.9,83,72,110.2,90.3c12.2,8.1,24.4,15.5,36.2,22
	c0.4,0.4,0.8,0.4,1.2,0.8c0,0,0.4,0,0.4-0.4l0,0c11-6.5,22.4-13.8,33.8-22c25.6-17.9,64.7-48.4,103.7-90.3
	c99.2-107,149.7-232.6,149.7-373.3C1005.7,193.4,872.3,60,708.5,60z M1226.6,702.2l-7.3-3.7c-5.7-3.3-12.6-7.3-20.7-12.6
	c-15-9.8-37.8-26.4-60.6-49.6c-57.7-58.6-88.2-130.1-88.2-207.4c0-94.3,76.9-171.2,171.2-171.2s171.2,76.9,171.2,171.2
	c0,76.9-28.5,148.4-83,207c-21.6,23.2-42.7,39.9-56.9,49.6c-7.7,5.3-14.2,9.4-18.7,12.2L1226.6,702.2z M1226.1,686.3l0.4,0.4
	L1226.1,686.3L1226.1,686.3z M1220.5,284.5c-79.7,0-144.8,65.1-144.8,144.8c0,71.2,27.2,134.6,80.5,188.7c21.1,21.6,42.3,37,56.5,46
	c4.9,3.3,8.9,5.7,12.6,7.7c3.3-2,6.9-4.5,11.4-7.3c13-9.4,32.9-24.8,52.9-46c50.4-54.1,75.6-117.9,75.6-189.1
	C1365.2,349.6,1300.6,284.5,1220.5,284.5z M202.2,702.2l-6.9-3.3c-5.7-3.3-12.6-7.3-21.1-12.6c-15-9.8-37.8-26.4-60.6-49.6
	c-57.7-58.2-88.2-130.1-88.2-207.4c0-94.3,76.9-171.2,171.2-171.2s171.2,76.9,171.2,171.2c0,76.9-28.5,148.4-83,207
	c-21.6,23.2-42.7,39.9-56.9,49.6c-7.7,5.3-14.2,9.4-18.7,12.2L202.2,702.2z M201.8,686.3l0.4,0.4L201.8,686.3L201.8,686.3z
	 M196.5,284.5c-79.7,0-144.8,65.1-144.8,144.8c0,71.2,27.2,134.6,80.5,188.7c21.1,21.6,42.3,37,56.5,46c4.9,3.3,8.9,5.7,12.6,7.7
	c3.3-2,6.9-4.5,11.4-7.3c13-9.4,32.9-24.4,52.9-46c50.4-54.1,75.6-117.9,75.6-189.1C340.8,349.6,276.2,284.5,196.5,284.5z
	 M856.9,975.4c40.7-7.3,72.4-17.5,91.1-29.3c9.4-6.1,15.5-12.2,17.5-18.7c2.4-6.5,1.2-13-3.7-19.1c-4.9-6.5-13-12.2-24.4-17.9
	c-11.4-5.7-26-11-43.1-15.5l-6.9,25.6c15.5,4.1,28.5,8.5,38.2,13.4c5.7,2.8,9.4,5.3,11.8,7.3c-0.8,0.8-2.4,1.6-4.1,2.8
	c-15.9,10.2-44.7,19.1-81.7,25.6c-39.4,6.9-85.4,10.6-133,10.6c-47.6,0-93.5-3.7-133-10.6c-37-6.5-65.9-15.5-81.3-25.6
	c-1.6-1.2-2.8-2-4.1-2.8c2.4-1.6,6.1-4.5,11.8-7.3c9.8-4.9,22.8-9.4,38.2-13.4l-6.9-25.6c-17.1,4.5-31.7,9.8-43.1,15.5
	c-11.4,5.7-19.5,11.8-24.4,17.9c-4.9,6.1-6.1,12.6-3.7,19.1c2.4,6.5,8.1,12.6,17.5,18.7c18.7,12.2,50.4,22.4,91.1,29.3
	c40.7,7.3,88.2,11,137.5,11C768.6,986.8,816.2,982.8,856.9,975.4z M1356.7,732.3l1.3-3.3v-3l-1-2l-1.9-2.7c-2.4-3.3-6.9-6.5-13-9.8
	c-6.1-2.8-13.8-5.7-22.8-8.1l-6.1,23.2c-4.9,1.2-11,2.8-18.3,4.1c-40.3,6.9-96,6.9-136.2,0c-7.3-1.2-13.4-2.8-18.3-4.1l-6.1-23.2
	c-8.9,2.4-16.7,5.3-22.8,8.1c-6.1,2.8-10.6,6.1-13.8,11l-0.6,0.5l0,0l-0.2,0.3l-0.8,1.7v1l0,0.6l0,2.4l0.8,2.9l1.2,0.1l0,1.5
	l2.4,2.8c1.6,1.6,3.7,3.3,6.1,4.9c9.8,6.5,26.4,11.8,48,15.5c21.6,3.7,46.8,5.7,72.8,5.7c25.2,0,50-2,71.6-6.1
	c21.6-3.7,38.2-9.4,48.4-15.5c2.4-1.6,4.5-3.3,6.1-4.9l2.4-2.8 M333,725c-0.1-0.2-2.2-4-2.3-4.2c-2.5-3.1-6.8-6.2-12.7-9.3
	c-6.1-2.8-13.8-5.7-22.8-8.1l-6.1,23.2c-4.9,1.2-11,2.8-18.3,4.1c-40.3,6.9-96,6.9-136.2,0c-7.3-1.2-13.4-2.8-18.3-4.1l-6.1-23.2
	c-9.7,3-17.4,5.9-22.8,8.1c-3.2,1.3-6.8,2.9-10.1,6.6c-2.5,2.9-3.8,5.9-4.4,7.9c-0.3,1-0.8,3.3,0,6c0.7,2.7,2.3,4.3,3,5
	c1.3,1,3.3,2.5,5.8,4.2c18.1,12,36.3,13.4,48.4,15.5c21.6,3.7,46.8,5.7,72.8,5.7s50.4-2,72-6.1c21.6-3.7,38.2-9.4,48.4-15.5
	c2.4-1.6,4.5-3.3,6.1-4.9l1.9-2.7l1.6-6.2"></path>
</svg>
