<svg version="1.1" id="Слой_1" xmlns="http://www.w3.org/2000/svg" xmlns:xlink="http://www.w3.org/1999/xlink" x="0px" y="0px" viewBox="0 0 360 360" style="enable-background:new 0 0 360 360;" xml:space="preserve">
<path d="M298.7,360H61.2c-32.8,0-59.5-26.9-59.5-60V60c0-33.1,26.7-60,59.5-60h237.5c32.8,0,59.5,26.9,59.5,60v240
	C358.2,333.1,331.6,360,298.7,360z M157.8,350.9h140.9c27.8,0,50.4-22.8,50.4-50.9V60c0-28.1-22.6-50.9-50.4-50.9H61.2
	C33.5,9.1,10.9,31.9,10.9,60v240c0,28.1,22.6,50.9,50.4,50.9h40V94.4l90.6,0.1c46.7,0,84.8,38.4,84.8,85.5h-9.1
	c0-42.1-34-76.4-75.6-76.4h-81.5v247.3h38.4v-94.5h43.2c41.7,0,75.6-34.3,75.6-76.4h9.1c0,47.1-38,85.5-84.8,85.5h-34.1V350.9z
	 M196.2,210.4h-35.7v-60.1h35.7c16.4,0,29.8,13.5,29.8,30C226,196.9,212.7,210.4,196.2,210.4z M169.7,201.3h26.6
	c11.4,0,20.7-9.4,20.7-20.9c0-11.6-9.3-20.9-20.7-20.9h-26.6V201.3z"></path>
</svg>
