<svg version="1.1" id="Слой_1" xmlns="http://www.w3.org/2000/svg" xmlns:xlink="http://www.w3.org/1999/xlink" x="0px" y="0px" viewBox="0 0 360 360" style="enable-background:new 0 0 360 360;" xml:space="preserve">
<style type="text/css">
	.st0{fill-rule:evenodd;clip-rule:evenodd;}
</style>
<path class="st0" d="M275.1,52.8c12.3,16.8,14.9,34.7,13.4,50.7c38.1,6.9,67.3,41.2,67,82.3v169.7c0,2.5-2,4.5-4.4,4.5h-167
	c-2.4,0-4.4-2-4.4-4.5V185.9c0-4,0.4-8,0.9-11.8c-0.1,0.1-0.3,0.1-0.4,0.1c-17.8,1.5-35.1-4.3-48.6-16.3l-6.7-6l-80.2,94.8
	c-4.4,5.1-10.4,7.8-16.3,7.8c-4.3,0-8.6-1.5-12.2-4.3c-4.4-3.6-7.2-8.7-7.8-14.5c-0.6-5.7,1.2-11.4,4.8-15.7l3.4-3.9l-7.9-7
	c-5.2-4.7-5.9-12.9-1.3-18.3l3.6-4.2c2.2-2.7,5.3-4.3,8.7-4.5c3.4-0.3,6.7,0.8,9.2,3.1l7.9,7l8-9.4l-7.9-7
	c-5.2-4.7-5.9-12.9-1.3-18.3l3.6-4.2c2.2-2.7,5.3-4.3,8.7-4.5c3.4-0.2,6.7,0.8,9.2,3.1l7.9,7l29.3-34.5l-6.7-6
	c-13.5-12-21.6-28.7-22.7-47c-1-18.3,4.9-35.9,16.9-49.5c23.9-27.2,66.1-29.3,94-4.5l10.9,9.6C198.1,23.7,246.1,13.1,275.1,52.8z
	 M268,58.1c-12-16.6-29.2-25.2-51-26c-8.8-0.3-16.8,0.9-22.2,2l22,19.6c15.1,13.4,23.2,32.3,23.8,51.1c6.7-1.9,13.7-2.8,20.8-2.8
	h12.8c1.3,0,2.4,0.1,3.7,0.2c0.6,0,1.3,0.1,1.9,0.1C281,88.3,278.6,72.6,268,58.1z M267.8,154.1c-0.8,0-1.8-0.3-2.5-0.8
	c-2-1.5-2.4-4.3-1-6.1c0,0,0.1-0.1,0.2-0.3c0.6-1,2.5-4.1,4.9-8.9l0,0c-0.5-0.1-1-0.2-1.6-0.2c-8.4,0-15.2,6.9-15.2,15.5
	c0,8.6,6.8,15.5,15.2,15.5s15.2-6.9,15.2-15.5c0-4.8-2.2-9.1-5.6-11.9c-3.2,6.7-6,10.8-6.1,10.9
	C270.5,153.4,269.1,154.1,267.8,154.1z M137.6,150.9c11.7,10.4,26.6,15.4,42.1,14.1c15.5-1.3,29.4-8.7,39.5-21
	c19.9-24.5,16.2-62-8.1-83.6L170,24.1c-24.3-21.6-61-19.9-81.7,3.8C77.9,39.7,72.8,55,73.8,70.9c0.9,15.8,8,30.4,19.7,40.7l10,8.9
	c0.8,0.7,1.4,1.9,1.5,3c0.1,1.2-0.3,2.3-1,3.2L68.7,168c-1.6,1.9-4.4,2-6.2,0.4l-11.2-10c-0.8-0.6-1.8-1-2.8-0.9
	c-0.9,0.1-1.9,0.5-2.6,1.4l-3.6,4.2c-1.4,1.7-1.3,4.2,0.4,5.7l11.2,10c1.8,1.7,2,4.5,0.4,6.4l-13.7,16.1c-0.8,0.9-1.9,1.5-3,1.6
	c-1.2,0.1-2.3-0.3-3.1-1l-11.2-10c-0.7-0.6-1.6-0.9-2.5-0.9h-0.3c-0.9,0.1-1.9,0.5-2.6,1.4l-3.6,4.2c-1.4,1.7-1.3,4.2,0.4,5.7
	l11.2,10c1.8,1.7,2,4.5,0.4,6.4l-6.2,7.3c-2.1,2.4-3,5.7-2.7,8.9c0.3,3.4,1.9,6.3,4.4,8.3c4.8,3.8,12.2,2.8,16.4-2.3l83.2-98.2
	c1.6-1.9,4.3-2.1,6.2-0.4L137.6,150.9z M188.7,350.9h158.1V185.8c0-36.7-25.8-67.1-59.7-73.4c-1.4,7.5-3.7,14.6-6,20.4
	c6.5,4.4,10.7,11.8,10.7,20.3c0,13.5-10.8,24.5-24,24.5s-24-11-24-24.5s10.8-24.5,24-24.5c1.8,0,3.7,0.2,5.3,0.6
	c2.1-5.1,4.1-11.3,5.3-17.9h-0.3c-1.4-0.1-2.6-0.2-4-0.2h-12.8c-7.1,0-14.1,1-21,3.1h-0.2c-1.3,12.8-6,25.2-14.5,35.6
	c-9.4,11.6-21.9,19.4-35.9,22.6c-0.7,4.4-1.2,8.8-1.2,13.3L188.7,350.9L188.7,350.9z M159.7,43.7l35.7,33.5
	c13.9,13.1,14.7,34.9,1.6,48.8l-1.6,1.7c-13.1,13.9-34.9,14.7-48.8,1.6l-35.7-33.5C96.9,82.7,96.2,60.9,109.3,47l1.6-1.7
	C123.8,31.4,145.7,30.7,159.7,43.7z M103.9,38.8c16.7-17.7,44.4-18.6,62.2-2l35.7,33.5c17.7,16.7,18.6,44.4,2,62.2l-1.6,1.7
	c-16.7,17.7-44.4,18.6-62.2,2l-35.7-33.5c-17.7-16.7-18.6-44.4-2-62.2L103.9,38.8z"></path>
</svg>
