<svg version="1.1" id="Слой_1" xmlns="http://www.w3.org/2000/svg" xmlns:xlink="http://www.w3.org/1999/xlink" x="0px" y="0px" viewBox="0 0 360 360" style="enable-background:new 0 0 360 360;" xml:space="preserve">
<g id="money">
	<path d="M352.72,40.09H7.28C3.81,40.09,1,42.9,1,46.37v184.5c0,3.47,2.81,6.28,6.28,6.28h183.85v58.49h0.13
		c1.44,17.09,38.4,24.9,72.88,24.9c34.48,0,71.45-7.81,72.88-24.9h0.14v-58.49h15.55c3.48,0,6.28-2.81,6.28-6.28V46.37
		C359,42.9,356.2,40.09,352.72,40.09z M13.56,52.65h33.37c-7.99,12.6-19.59,22.64-33.37,28.71V52.65z M13.56,224.59v-27.61
		c12.22,6.34,22.47,15.93,29.64,27.61H13.56z M57.6,224.59c-9.31-18.53-24.9-33.34-44.04-41.55V94.88
		c20.74-7.63,37.83-22.77,47.86-42.23h64.18c-16.63,21.88-27.21,53.4-27.21,88.59c0,32.48,9.03,61.8,23.48,83.35H57.6z
		 M137.16,224.59c-15.9-19.6-26.2-49.56-26.2-83.35c0-36.99,12.34-69.4,30.88-88.59h76.81C228.6,63,236.62,77.3,242.01,93.98
		c-27.25,2.75-50.87,10.74-50.87,24.8v105.82H137.16z M203.69,178.03c14,7.2,37.73,10.62,60.45,10.62
		c22.72,0,46.45-3.42,60.45-10.62v29.68h-0.68c-3.77,4.22-23.49,12.34-59.77,12.34c-36.57,0-56.32-8.26-59.87-12.34h-0.59V178.03z
		 M323.92,163.74c-3.77,4.22-23.49,12.34-59.77,12.34c-36.57,0-56.32-8.26-59.87-12.34h-0.59v-29.63
		c14.04,7.17,37.78,10.57,60.45,10.57c22.68,0,46.41-3.39,60.45-10.57v29.63H323.92z M203.69,221.99c14,7.2,37.73,10.62,60.45,10.62
		c22.72,0,46.45-3.42,60.45-10.62v29.68h-0.68c-3.77,4.22-23.49,12.34-59.77,12.34c-36.57,0-56.32-8.26-59.87-12.34h-0.59V221.99z
		 M264.15,132.12c-39.62,0-59.53-9.69-60.45-13.27v-0.02c0.92-3.7,20.84-13.4,60.45-13.4c39.65,0,59.58,9.72,60.46,13.29
		C323.73,122.4,303.8,132.12,264.15,132.12z M323.92,295.64c-3.77,4.22-23.49,12.34-59.77,12.34c-36.57,0-56.32-8.26-59.87-12.34
		h-0.59v-29.68c14,7.2,37.73,10.62,60.45,10.62c22.72,0,46.45-3.42,60.45-10.62v29.68H323.92z M346.44,224.59h-9.27v-21.6
		c2.94-2.18,6-4.21,9.27-5.92V224.59z M346.44,183.29c-3.22,1.39-6.29,3.05-9.27,4.83v-69.35c0-17.8-37.85-25.91-73.02-25.91
		c-3.15,0-6.31,0.09-9.48,0.22c-4.71-15.42-11.41-29.26-19.89-40.43h68.26c9.31,18.05,24.66,32.43,43.4,40.51V183.29z M346.44,79.3
		c-11.84-6.16-21.79-15.42-28.9-26.65h28.9V79.3z"></path>
	<path d="M62.91,119.22c-10.39,0-18.84,8.45-18.84,18.84s8.45,18.84,18.84,18.84s18.84-8.45,18.84-18.84S73.3,119.22,62.91,119.22z
		 M62.91,144.35c-3.47,0-6.28-2.82-6.28-6.28c0-3.46,2.82-6.28,6.28-6.28c3.47,0,6.28,2.82,6.28,6.28
		C69.19,141.53,66.38,144.35,62.91,144.35z"></path>
</g>
</svg>
