<svg version="1.1" xmlns="http://www.w3.org/2000/svg" width="32" height="32" viewBox="0 0 32 32">
<title>refresh</title>
<path d="M16 0c-5.4 0-10.15 2.65-13.050 6.75v-3.5c0-0.3-0.25-0.55-0.55-0.55s-0.55 0.25-0.55 0.55v4.85c0 0.3 0.25 0.55 0.55 0.55h4.95c0.3 0 0.55-0.25 0.55-0.55s-0.25-0.55-0.55-0.55h-3.6c2.7-3.85 7.2-6.4 12.25-6.4 8.2 0 14.85 6.65 14.9 14.8h1.1c-0.050-8.8-7.2-15.95-16-15.95z"></path>
<path d="M30.2 22.35h-4.95c-0.3 0-0.55 0.25-0.55 0.55s0.25 0.55 0.55 0.55h3.6c-2.6 4.45-7.4 7.4-12.85 7.4-8.050 0-14.6-6.35-14.85-14.35h-1.15c0.25 8.6 7.35 15.5 16 15.5 5.75 0 10.8-3.1 13.65-7.7v3.5c0 0.3 0.25 0.55 0.55 0.55s0.55-0.25 0.55-0.55v-4.85c0-0.35-0.25-0.6-0.55-0.6z"></path>
</svg>
