<svg version="1.1" id="Слой_1" xmlns="http://www.w3.org/2000/svg" xmlns:xlink="http://www.w3.org/1999/xlink" x="0px" y="0px" viewBox="0 0 1615.7 1020.5" style="enable-background:new 0 0 1615.7 1020.5;" xml:space="preserve">
<style type="text/css">
	.st0{fill:#020203;}
</style>
<g fill="inherit">
	<path class="st0" d="M807.9,986.5c-43.8,0-79.6-33.4-79.6-74.4c0-41,35.8-74.4,79.6-74.4c43.8,0,79.6,33.4,79.6,74.4
		C887.5,953,851.7,986.5,807.9,986.5z M807.9,866.8c-27.3,0-49.5,20.3-49.5,44.7s22.1,44.7,49.5,44.7c27.3,0,49.5-20.3,49.5-44.7
		S835.2,866.8,807.9,866.8z"></path>
	<path class="st0" d="M1040.6,785.3c-23.6-38.2-57.5-69.7-98-91.9c-82-44.3-187.9-44.3-269.4,0c-40.5,22.1-74.4,53.7-98,91.9
		l-25.4-15.5c25.9-42.4,63.6-77.7,109.3-102.2c90.4-49,207.3-49,298.2,0c45.2,24.5,82.9,59.8,109.3,102.2L1040.6,785.3z"></path>
	<path class="st0" d="M334.5,637.4L309,621.9c50.4-82,123.4-150.3,211-197.8s187-72.5,287.8-72.5c100.8,0,200.7,25,288.3,72.5
		c87.6,47.6,160.2,115.9,211,197.8l-25.4,15.5c-47.6-77.7-116.8-142.3-199.7-187c-82.9-45.2-177.6-68.8-273.7-68.8
		s-190.8,23.6-273.7,68.8C451.3,495.2,382.1,559.7,334.5,637.4z"></path>
	<path class="st0" d="M42,478.2l-25.4-15.5c80.1-130,196-238.3,334.4-313.7C489.5,74.1,647.7,34,807.9,34s318,39.6,456.9,114.9
		c138.5,74.9,254.4,183.7,334.4,313.7l-25.4,15.5c-77.3-125.8-189.4-230.3-323.1-302.9C1116.4,102.8,963.3,64.2,807.9,64.2
		s-308.5,38.6-442.8,111.2S119.2,352.4,42,478.2z"></path>
</g>
</svg>
